<?xml version="1.0" encoding="UTF-8"?>
<svg id="Layer_1" data-name="Layer 1" xmlns="http://www.w3.org/2000/svg" xmlns:xlink="http://www.w3.org/1999/xlink" viewBox="0 0 782 1052">
  <defs>
    <style>
      .cls-1 {
        fill: none;
      }

      .cls-2 {
        clip-path: url(#clippath);
      }

      .cls-3 {
        fill: #e55031;
      }

      .cls-4 {
        clip-path: url(#clippath-1);
      }

      .cls-5 {
        clip-path: url(#clippath-4);
      }

      .cls-6 {
        clip-path: url(#clippath-3);
      }

      .cls-7 {
        clip-path: url(#clippath-2);
      }

      .cls-8 {
        clip-path: url(#clippath-7);
      }

      .cls-9 {
        clip-path: url(#clippath-8);
      }

      .cls-10 {
        clip-path: url(#clippath-6);
      }

      .cls-11 {
        clip-path: url(#clippath-5);
      }

      .cls-12 {
        clip-path: url(#clippath-9);
      }
    </style>
    <clipPath id="clippath">
      <rect class="cls-1" x="283" y="417" width="34" height="55"/>
    </clipPath>
    <clipPath id="clippath-1">
      <rect class="cls-1" x="392" y="417" width="34" height="55"/>
    </clipPath>
    <clipPath id="clippath-2">
      <rect class="cls-1" x="283" y="580" width="34" height="55"/>
    </clipPath>
    <clipPath id="clippath-3">
      <rect class="cls-1" x="458" y="417" width="34" height="55"/>
    </clipPath>
    <clipPath id="clippath-4">
      <rect class="cls-1" x="174" y="417" width="34" height="55"/>
    </clipPath>
    <clipPath id="clippath-5">
      <rect class="cls-1" x="283" y="658" width="34" height="55"/>
    </clipPath>
    <clipPath id="clippath-6">
      <rect class="cls-1" x="458" y="542" width="34" height="55"/>
    </clipPath>
    <clipPath id="clippath-7">
      <rect class="cls-1" x="458" y="635" width="34" height="55"/>
    </clipPath>
    <clipPath id="clippath-8">
      <rect class="cls-1" x="552" y="417" width="34" height="55"/>
    </clipPath>
    <clipPath id="clippath-9">
      <rect class="cls-1" x="283" y="502" width="34" height="55"/>
    </clipPath>
  </defs>
  <g id="_그룹_64" data-name="그룹 64">
    <g class="cls-2">
      <g id="_그룹_49" data-name="그룹 49">
        <path id="_패스_496" data-name="패스 496" class="cls-3" d="m300.1,417.23c-9.22,0-16.69,7.47-16.69,16.69h0c0,9.22,16.69,37.77,16.69,37.77,0,0,16.69-28.56,16.69-37.77s-7.47-16.69-16.69-16.69m0,29.65c-6.43,0-11.64-5.21-11.64-11.64s5.21-11.64,11.64-11.64,11.64,5.21,11.64,11.64c0,6.43-5.21,11.64-11.64,11.64h0"/>
      </g>
    </g>
  </g>
  <g id="_그룹_67" data-name="그룹 67">
    <g class="cls-4">
      <g id="_그룹_49-2" data-name="그룹 49-2">
        <path id="_패스_496-2" data-name="패스 496-2" class="cls-3" d="m409.1,417.23c-9.22,0-16.69,7.47-16.69,16.69h0c0,9.22,16.69,37.77,16.69,37.77,0,0,16.69-28.56,16.69-37.77s-7.47-16.69-16.69-16.69m0,29.65c-6.43,0-11.64-5.21-11.64-11.64s5.21-11.64,11.64-11.64,11.64,5.21,11.64,11.64c0,6.43-5.21,11.64-11.64,11.64h0"/>
      </g>
    </g>
  </g>
  <g id="_그룹_68" data-name="그룹 68">
    <g class="cls-7">
      <g id="_그룹_49-3" data-name="그룹 49-3">
        <path id="_패스_496-3" data-name="패스 496-3" class="cls-3" d="m300.1,580.22c-9.22,0-16.69,7.47-16.69,16.69h0c0,9.22,16.69,37.77,16.69,37.77,0,0,16.69-28.56,16.69-37.77s-7.47-16.69-16.69-16.69m0,29.65c-6.43,0-11.64-5.21-11.64-11.64s5.21-11.64,11.64-11.64,11.64,5.21,11.64,11.64c0,6.43-5.21,11.64-11.64,11.64h0"/>
      </g>
    </g>
  </g>
  <g id="_그룹_69" data-name="그룹 69">
    <g class="cls-6">
      <g id="_그룹_49-4" data-name="그룹 49-4">
        <path id="_패스_496-4" data-name="패스 496-4" class="cls-3" d="m475.1,417.23c-9.22,0-16.69,7.47-16.69,16.69h0c0,9.22,16.69,37.77,16.69,37.77,0,0,16.69-28.56,16.69-37.77s-7.47-16.69-16.69-16.69m0,29.65c-6.43,0-11.64-5.21-11.64-11.64s5.21-11.64,11.64-11.64,11.64,5.21,11.64,11.64c0,6.43-5.21,11.64-11.64,11.64h0"/>
      </g>
    </g>
  </g>
  <g id="_그룹_70" data-name="그룹 70">
    <g class="cls-5">
      <g id="_그룹_49-5" data-name="그룹 49-5">
        <path id="_패스_496-5" data-name="패스 496-5" class="cls-3" d="m191.1,417.23c-9.22,0-16.69,7.47-16.69,16.69h0c0,9.22,16.69,37.77,16.69,37.77,0,0,16.69-28.56,16.69-37.77s-7.47-16.69-16.69-16.69m0,29.65c-6.43,0-11.64-5.21-11.64-11.64s5.21-11.64,11.64-11.64,11.64,5.21,11.64,11.64c0,6.43-5.21,11.64-11.64,11.64h0"/>
      </g>
    </g>
  </g>
  <g id="_그룹_71" data-name="그룹 71">
    <g class="cls-11">
      <g id="_그룹_49-6" data-name="그룹 49-6">
        <path id="_패스_496-6" data-name="패스 496-6" class="cls-3" d="m300.1,658.22c-9.22,0-16.69,7.47-16.69,16.69h0c0,9.22,16.69,37.77,16.69,37.77,0,0,16.69-28.56,16.69-37.77s-7.47-16.69-16.69-16.69m0,29.65c-6.43,0-11.64-5.21-11.64-11.64s5.21-11.64,11.64-11.64,11.64,5.21,11.64,11.64c0,6.43-5.21,11.64-11.64,11.64h0"/>
      </g>
    </g>
  </g>
  <g id="_그룹_72" data-name="그룹 72">
    <g class="cls-10">
      <g id="_그룹_49-7" data-name="그룹 49-7">
        <path id="_패스_496-7" data-name="패스 496-7" class="cls-3" d="m475.1,542.22c-9.22,0-16.69,7.47-16.69,16.69h0c0,9.22,16.69,37.77,16.69,37.77,0,0,16.69-28.56,16.69-37.77s-7.47-16.69-16.69-16.69m0,29.65c-6.43,0-11.64-5.21-11.64-11.64s5.21-11.64,11.64-11.64,11.64,5.21,11.64,11.64c0,6.43-5.21,11.64-11.64,11.64h0"/>
      </g>
    </g>
  </g>
  <g id="_그룹_73" data-name="그룹 73">
    <g class="cls-8">
      <g id="_그룹_49-8" data-name="그룹 49-8">
        <path id="_패스_496-8" data-name="패스 496-8" class="cls-3" d="m475.1,635.22c-9.22,0-16.69,7.47-16.69,16.69h0c0,9.22,16.69,37.77,16.69,37.77,0,0,16.69-28.56,16.69-37.77s-7.47-16.69-16.69-16.69m0,29.65c-6.43,0-11.64-5.21-11.64-11.64s5.21-11.64,11.64-11.64,11.64,5.21,11.64,11.64c0,6.43-5.21,11.64-11.64,11.64h0"/>
      </g>
    </g>
  </g>
  <g id="_그룹_74" data-name="그룹 74">
    <g class="cls-9">
      <g id="_그룹_49-9" data-name="그룹 49-9">
        <path id="_패스_496-9" data-name="패스 496-9" class="cls-3" d="m569.1,417.23c-9.22,0-16.69,7.47-16.69,16.69h0c0,9.22,16.69,37.77,16.69,37.77,0,0,16.69-28.56,16.69-37.77s-7.47-16.69-16.69-16.69m0,29.65c-6.43,0-11.64-5.21-11.64-11.64s5.21-11.64,11.64-11.64,11.64,5.21,11.64,11.64c0,6.43-5.21,11.64-11.64,11.64h0"/>
      </g>
    </g>
  </g>
  <g id="_그룹_65" data-name="그룹 65">
    <g class="cls-12">
      <g id="_그룹_49-10" data-name="그룹 49-10">
        <path id="_패스_496-10" data-name="패스 496-10" class="cls-3" d="m300.1,502.22c-9.22,0-16.69,7.47-16.69,16.69h0c0,9.22,16.69,37.77,16.69,37.77,0,0,16.69-28.56,16.69-37.77s-7.47-16.69-16.69-16.69m0,29.65c-6.43,0-11.64-5.21-11.64-11.64s5.21-11.64,11.64-11.64,11.64,5.21,11.64,11.64c0,6.43-5.21,11.64-11.64,11.64h0"/>
      </g>
    </g>
  </g>
</svg>