<?xml version="1.0" encoding="UTF-8"?>
<svg id="Layer_1" data-name="Layer 1" xmlns="http://www.w3.org/2000/svg" xmlns:xlink="http://www.w3.org/1999/xlink" viewBox="0 0 782 1052">
  <defs>
    <style>
      .cls-1 {
        fill: none;
      }

      .cls-2 {
        clip-path: url(#clippath);
      }

      .cls-3 {
        fill: #e55031;
      }

      .cls-4 {
        clip-path: url(#clippath-1);
      }

      .cls-5 {
        clip-path: url(#clippath-4);
      }

      .cls-6 {
        clip-path: url(#clippath-3);
      }

      .cls-7 {
        clip-path: url(#clippath-2);
      }

      .cls-8 {
        clip-path: url(#clippath-5);
      }
    </style>
    <clipPath id="clippath">
      <rect class="cls-1" x="621.59" y="728.14" width="33" height="54"/>
    </clipPath>
    <clipPath id="clippath-1">
      <rect class="cls-1" x="556.59" y="728.14" width="33" height="54"/>
    </clipPath>
    <clipPath id="clippath-2">
      <rect class="cls-1" x="346.59" y="524.14" width="34" height="55"/>
    </clipPath>
    <clipPath id="clippath-3">
      <rect class="cls-1" x="532" y="474" width="34" height="55"/>
    </clipPath>
    <clipPath id="clippath-4">
      <rect class="cls-1" x="548.59" y="554.14" width="34" height="55"/>
    </clipPath>
    <clipPath id="clippath-5">
      <rect class="cls-1" x="598.59" y="522.14" width="33" height="54"/>
    </clipPath>
  </defs>
  <g id="_그룹_58" data-name="그룹 58">
    <g class="cls-2">
      <g id="_그룹_49" data-name="그룹 49">
        <path id="_패스_496" data-name="패스 496" class="cls-3" d="m637.98,728.26c-9.22,0-16.69,7.47-16.69,16.69h0c0,9.22,16.69,37.77,16.69,37.77,0,0,16.69-28.56,16.69-37.77s-7.47-16.69-16.69-16.69m0,29.65c-6.43,0-11.64-5.21-11.64-11.64s5.21-11.64,11.64-11.64,11.64,5.21,11.64,11.64c0,6.43-5.21,11.64-11.64,11.64h0"/>
      </g>
    </g>
  </g>
  <g id="_그룹_62" data-name="그룹 62">
    <g class="cls-4">
      <g id="_그룹_49-2" data-name="그룹 49-2">
        <path id="_패스_496-2" data-name="패스 496-2" class="cls-3" d="m572.98,728.26c-9.22,0-16.69,7.47-16.69,16.69h0c0,9.22,16.69,37.77,16.69,37.77,0,0,16.69-28.56,16.69-37.77s-7.47-16.69-16.69-16.69m0,29.65c-6.43,0-11.64-5.21-11.64-11.64s5.21-11.64,11.64-11.64,11.64,5.21,11.64,11.64c0,6.43-5.21,11.64-11.64,11.64h0"/>
      </g>
    </g>
  </g>
  <g id="_그룹_59" data-name="그룹 59">
    <g class="cls-7">
      <g id="_그룹_49-3" data-name="그룹 49-3">
        <path id="_패스_496-3" data-name="패스 496-3" class="cls-3" d="m363.69,524.37c-9.22,0-16.69,7.47-16.69,16.69h0c0,9.22,16.69,37.77,16.69,37.77,0,0,16.69-28.56,16.69-37.77s-7.47-16.69-16.69-16.69m0,29.65c-6.43,0-11.64-5.21-11.64-11.64s5.21-11.64,11.64-11.64,11.64,5.21,11.64,11.64c0,6.43-5.21,11.64-11.64,11.64h0"/>
      </g>
    </g>
  </g>
  <g id="_그룹_59-2" data-name="그룹 59">
    <g class="cls-6">
      <g id="_그룹_49-3-2" data-name="그룹 49-3">
        <path id="_패스_496-3-2" data-name="패스 496-3" class="cls-3" d="m549.1,474.22c-9.22,0-16.69,7.47-16.69,16.69h0c0,9.22,16.69,37.77,16.69,37.77,0,0,16.69-28.56,16.69-37.77s-7.47-16.69-16.69-16.69m0,29.65c-6.43,0-11.64-5.21-11.64-11.64s5.21-11.64,11.64-11.64,11.64,5.21,11.64,11.64c0,6.43-5.21,11.64-11.64,11.64h0"/>
      </g>
    </g>
  </g>
  <g id="_그룹_63" data-name="그룹 63">
    <g class="cls-5">
      <g id="_그룹_49-4" data-name="그룹 49-4">
        <path id="_패스_496-4" data-name="패스 496-4" class="cls-3" d="m565.69,554.37c-9.22,0-16.69,7.47-16.69,16.69h0c0,9.22,16.69,37.77,16.69,37.77,0,0,16.69-28.56,16.69-37.77s-7.47-16.69-16.69-16.69m0,29.65c-6.43,0-11.64-5.21-11.64-11.64s5.21-11.64,11.64-11.64,11.64,5.21,11.64,11.64c0,6.43-5.21,11.64-11.64,11.64h0"/>
      </g>
    </g>
  </g>
  <g id="_그룹_60" data-name="그룹 60">
    <g class="cls-8">
      <g id="_그룹_49-5" data-name="그룹 49-5">
        <path id="_패스_496-5" data-name="패스 496-5" class="cls-3" d="m615.08,522.23c-9.22,0-16.69,7.47-16.69,16.69h0c0,9.22,16.69,37.77,16.69,37.77,0,0,16.69-28.56,16.69-37.77s-7.47-16.69-16.69-16.69m0,29.65c-6.43,0-11.64-5.21-11.64-11.64s5.21-11.64,11.64-11.64,11.64,5.21,11.64,11.64c0,6.43-5.21,11.64-11.64,11.64h0"/>
      </g>
    </g>
  </g>
</svg>