<?xml version="1.0" encoding="UTF-8"?>
<svg id="Layer_1" data-name="Layer 1" xmlns="http://www.w3.org/2000/svg" xmlns:xlink="http://www.w3.org/1999/xlink" viewBox="0 0 782 1052">
  <defs>
    <style>
      .cls-1 {
        fill: none;
      }

      .cls-2 {
        clip-path: url(#clippath);
      }

      .cls-3 {
        fill: #e55031;
      }

      .cls-4 {
        clip-path: url(#clippath-1);
      }

      .cls-5 {
        clip-path: url(#clippath-4);
      }

      .cls-6 {
        clip-path: url(#clippath-3);
      }

      .cls-7 {
        clip-path: url(#clippath-2);
      }

      .cls-8 {
        clip-path: url(#clippath-5);
      }
    </style>
    <clipPath id="clippath">
      <rect class="cls-1" x="228" y="596.5" width="33" height="55"/>
    </clipPath>
    <clipPath id="clippath-1">
      <rect class="cls-1" x="165" y="227.5" width="33" height="55"/>
    </clipPath>
    <clipPath id="clippath-2">
      <rect class="cls-1" x="584" y="770.5" width="33" height="54"/>
    </clipPath>
    <clipPath id="clippath-3">
      <rect class="cls-1" x="576" y="596.5" width="34" height="55"/>
    </clipPath>
    <clipPath id="clippath-4">
      <rect class="cls-1" x="561" y="564.5" width="33" height="54"/>
    </clipPath>
    <clipPath id="clippath-5">
      <rect class="cls-1" x="496" y="453.5" width="34" height="54"/>
    </clipPath>
  </defs>
  <g id="_그룹_50" data-name="그룹 50">
    <g class="cls-2">
      <g id="_그룹_49" data-name="그룹 49">
        <path id="_패스_496" data-name="패스 496" class="cls-3" d="m244.66,596.73c-9.22,0-16.69,7.47-16.69,16.69h0c0,9.22,16.69,37.77,16.69,37.77,0,0,16.69-28.56,16.69-37.77s-7.47-16.69-16.69-16.69m0,29.65c-6.43,0-11.64-5.21-11.64-11.64s5.21-11.64,11.64-11.64,11.64,5.21,11.64,11.64c0,6.43-5.21,11.64-11.64,11.64h0"/>
      </g>
    </g>
  </g>
  <g id="_그룹_57" data-name="그룹 57">
    <g class="cls-4">
      <g id="_그룹_49-2" data-name="그룹 49-2">
        <path id="_패스_496-2" data-name="패스 496-2" class="cls-3" d="m181.69,227.68c-9.22,0-16.69,7.47-16.69,16.69h0c0,9.22,16.69,37.77,16.69,37.77,0,0,16.69-28.56,16.69-37.77s-7.47-16.69-16.69-16.69m0,29.65c-6.43,0-11.64-5.21-11.64-11.64s5.21-11.64,11.64-11.64,11.64,5.21,11.64,11.64c0,6.43-5.21,11.64-11.64,11.64h0"/>
      </g>
    </g>
  </g>
  <g id="_그룹_51" data-name="그룹 51">
    <g class="cls-7">
      <g id="_그룹_49-3" data-name="그룹 49-3">
        <path id="_패스_496-3" data-name="패스 496-3" class="cls-3" d="m600.39,770.62c-9.22,0-16.69,7.47-16.69,16.69h0c0,9.22,16.69,37.77,16.69,37.77,0,0,16.69-28.56,16.69-37.77s-7.47-16.69-16.69-16.69m0,29.65c-6.43,0-11.64-5.21-11.64-11.64s5.21-11.64,11.64-11.64,11.64,5.21,11.64,11.64c0,6.43-5.21,11.64-11.64,11.64h0"/>
      </g>
    </g>
  </g>
  <g id="_그룹_52" data-name="그룹 52">
    <g class="cls-6">
      <g id="_그룹_49-4" data-name="그룹 49-4">
        <path id="_패스_496-4" data-name="패스 496-4" class="cls-3" d="m593.1,596.73c-9.22,0-16.69,7.47-16.69,16.69h0c0,9.22,16.69,37.77,16.69,37.77,0,0,16.69-28.56,16.69-37.77s-7.47-16.69-16.69-16.69m0,29.65c-6.43,0-11.64-5.21-11.64-11.64s5.21-11.64,11.64-11.64,11.64,5.21,11.64,11.64c0,6.43-5.21,11.64-11.64,11.64h0"/>
      </g>
    </g>
  </g>
  <g id="_그룹_53" data-name="그룹 53">
    <g class="cls-5">
      <g id="_그룹_49-5" data-name="그룹 49-5">
        <path id="_패스_496-5" data-name="패스 496-5" class="cls-3" d="m577.49,564.59c-9.22,0-16.69,7.47-16.69,16.69h0c0,9.22,16.69,37.77,16.69,37.77,0,0,16.69-28.56,16.69-37.77s-7.47-16.69-16.69-16.69m0,29.65c-6.43,0-11.64-5.21-11.64-11.64s5.21-11.64,11.64-11.64,11.64,5.21,11.64,11.64c0,6.43-5.21,11.64-11.64,11.64h0"/>
      </g>
    </g>
  </g>
  <g id="_그룹_54" data-name="그룹 54">
    <g class="cls-8">
      <g id="_그룹_49-6" data-name="그룹 49-6">
        <path id="_패스_496-6" data-name="패스 496-6" class="cls-3" d="m512.86,453.55c-9.22,0-16.69,7.47-16.69,16.69h0c0,9.22,16.69,37.77,16.69,37.77,0,0,16.69-28.56,16.69-37.77s-7.47-16.69-16.69-16.69m0,29.65c-6.43,0-11.64-5.21-11.64-11.64s5.21-11.64,11.64-11.64,11.64,5.21,11.64,11.64c0,6.43-5.21,11.64-11.64,11.64h0"/>
      </g>
    </g>
  </g>
</svg>